<svg xmlns="http://www.w3.org/2000/svg" width="1448" height="1086" viewBox="0 0 1448 1086" role="img" aria-labelledby="title desc">
<title id="title">Расписание занятий курса «ИИ: говори на его языке»</title>
<desc id="desc">Актуальное расписание пяти групп на 2026/2027 учебный год. Время каждого учебного часа указано отдельно.</desc>
<rect width="1448" height="1086" fill="#f5f7fb"/>
<rect x="24" y="22" width="1400" height="258" rx="28" fill="#ffffff" stroke="#dce3ee" stroke-width="2"/>
<text x="724" y="104" text-anchor="middle" font-family="Arial,Segoe UI,sans-serif" font-size="72" font-weight="900" fill="#17202a">РАСПИСАНИЕ ЗАНЯТИЙ</text>
<rect x="350" y="128" width="748" height="64" rx="18" fill="#eef2ff"/>
<text x="724" y="171" text-anchor="middle" font-family="Arial,Segoe UI,sans-serif" font-size="42" font-weight="900" fill="#3155d9">«ИИ: говори на его языке»</text>
<text x="724" y="226" text-anchor="middle" font-family="Arial,Segoe UI,sans-serif" font-size="25" font-weight="600" fill="#5d6977">Дроздов Дмитрий Владимирович · кабинет 4 · 2026/2027 учебный год</text>
<text x="724" y="260" text-anchor="middle" font-family="Arial,Segoe UI,sans-serif" font-size="20" font-weight="600" fill="#5d6977">Каждый блок: 40 минут · перерыв 10 минут · 40 минут</text>
  <rect x="18" y="304" width="446" height="304" rx="18" fill="#ffffff" stroke="#dce3ee" stroke-width="2"/>
  <path d="M36,304 H446 Q464,304 464,322 V362 H18 V322 Q18,304 36,304 Z" fill="#eef2ff"/>
  <text x="241" y="343" text-anchor="middle" font-family="Arial,Segoe UI,sans-serif" font-size="28" font-weight="900" fill="#3155d9">ПОНЕДЕЛЬНИК</text>
      <rect x="36" y="374" width="150" height="56" rx="12" fill="#f5f7fb"/>
      <text x="111" y="396" text-anchor="middle" font-family="Arial,Segoe UI,sans-serif" font-size="17" font-weight="800" fill="#17202a">14:30–15:10</text>
      <text x="111" y="418" text-anchor="middle" font-family="Arial,Segoe UI,sans-serif" font-size="17" font-weight="800" fill="#17202a">15:20–16:00</text>
      <text x="259" y="398" text-anchor="middle" font-family="Arial,Segoe UI,sans-serif" font-size="19" font-weight="900" fill="#3155d9">1 группа</text>
      <text x="259" y="421" text-anchor="middle" font-family="Arial,Segoe UI,sans-serif" font-size="15" font-weight="700" fill="#5d6977">5 класс</text>
      <line x1="348" y1="382" x2="348" y2="422" stroke="#dce3ee" stroke-width="1.5"/>
      <text x="400" y="408" text-anchor="middle" font-family="Arial,Segoe UI,sans-serif" font-size="16" font-weight="700" fill="#5d6977">40+10+40</text><line x1="36" y1="440" x2="446" y2="440" stroke="#e5eaf2" stroke-width="1.5"/>
      <rect x="36" y="446" width="150" height="56" rx="12" fill="#f5f7fb"/>
      <text x="111" y="468" text-anchor="middle" font-family="Arial,Segoe UI,sans-serif" font-size="17" font-weight="800" fill="#17202a">16:10–16:50</text>
      <text x="111" y="490" text-anchor="middle" font-family="Arial,Segoe UI,sans-serif" font-size="17" font-weight="800" fill="#17202a">17:00–17:40</text>
      <text x="259" y="470" text-anchor="middle" font-family="Arial,Segoe UI,sans-serif" font-size="19" font-weight="900" fill="#3155d9">4 группа</text>
      <text x="259" y="493" text-anchor="middle" font-family="Arial,Segoe UI,sans-serif" font-size="15" font-weight="700" fill="#5d6977">8 класс</text>
      <line x1="348" y1="454" x2="348" y2="494" stroke="#dce3ee" stroke-width="1.5"/>
      <text x="400" y="480" text-anchor="middle" font-family="Arial,Segoe UI,sans-serif" font-size="16" font-weight="700" fill="#5d6977">40+10+40</text><line x1="36" y1="512" x2="446" y2="512" stroke="#e5eaf2" stroke-width="1.5"/>
      <rect x="36" y="518" width="150" height="56" rx="12" fill="#f5f7fb"/>
      <text x="111" y="540" text-anchor="middle" font-family="Arial,Segoe UI,sans-serif" font-size="17" font-weight="800" fill="#17202a">17:50–18:30</text>
      <text x="111" y="562" text-anchor="middle" font-family="Arial,Segoe UI,sans-serif" font-size="17" font-weight="800" fill="#17202a">18:40–19:20</text>
      <text x="259" y="542" text-anchor="middle" font-family="Arial,Segoe UI,sans-serif" font-size="19" font-weight="900" fill="#3155d9">5 группа</text>
      <text x="259" y="565" text-anchor="middle" font-family="Arial,Segoe UI,sans-serif" font-size="15" font-weight="700" fill="#5d6977">8–11 классы</text>
      <line x1="348" y1="526" x2="348" y2="566" stroke="#dce3ee" stroke-width="1.5"/>
      <text x="400" y="552" text-anchor="middle" font-family="Arial,Segoe UI,sans-serif" font-size="16" font-weight="700" fill="#5d6977">40+10+40</text>
  <rect x="501" y="304" width="446" height="304" rx="18" fill="#ffffff" stroke="#dce3ee" stroke-width="2"/>
  <path d="M519,304 H929 Q947,304 947,322 V362 H501 V322 Q501,304 519,304 Z" fill="#eef2ff"/>
  <text x="724" y="343" text-anchor="middle" font-family="Arial,Segoe UI,sans-serif" font-size="28" font-weight="900" fill="#3155d9">ВТОРНИК</text>
      <rect x="519" y="374" width="150" height="56" rx="12" fill="#f5f7fb"/>
      <text x="594" y="396" text-anchor="middle" font-family="Arial,Segoe UI,sans-serif" font-size="17" font-weight="800" fill="#17202a">15:00–15:40</text>
      <text x="594" y="418" text-anchor="middle" font-family="Arial,Segoe UI,sans-serif" font-size="17" font-weight="800" fill="#17202a">15:50–16:30</text>
      <text x="742" y="398" text-anchor="middle" font-family="Arial,Segoe UI,sans-serif" font-size="19" font-weight="900" fill="#3155d9">2 группа</text>
      <text x="742" y="421" text-anchor="middle" font-family="Arial,Segoe UI,sans-serif" font-size="15" font-weight="700" fill="#5d6977">6 класс</text>
      <line x1="831" y1="382" x2="831" y2="422" stroke="#dce3ee" stroke-width="1.5"/>
      <text x="883" y="408" text-anchor="middle" font-family="Arial,Segoe UI,sans-serif" font-size="16" font-weight="700" fill="#5d6977">40+10+40</text><line x1="519" y1="440" x2="929" y2="440" stroke="#e5eaf2" stroke-width="1.5"/>
      <rect x="519" y="446" width="150" height="56" rx="12" fill="#f5f7fb"/>
      <text x="594" y="468" text-anchor="middle" font-family="Arial,Segoe UI,sans-serif" font-size="17" font-weight="800" fill="#17202a">16:40–17:20</text>
      <text x="594" y="490" text-anchor="middle" font-family="Arial,Segoe UI,sans-serif" font-size="17" font-weight="800" fill="#17202a">17:30–18:10</text>
      <text x="742" y="470" text-anchor="middle" font-family="Arial,Segoe UI,sans-serif" font-size="19" font-weight="900" fill="#3155d9">3 группа</text>
      <text x="742" y="493" text-anchor="middle" font-family="Arial,Segoe UI,sans-serif" font-size="15" font-weight="700" fill="#5d6977">7 класс</text>
      <line x1="831" y1="454" x2="831" y2="494" stroke="#dce3ee" stroke-width="1.5"/>
      <text x="883" y="480" text-anchor="middle" font-family="Arial,Segoe UI,sans-serif" font-size="16" font-weight="700" fill="#5d6977">40+10+40</text>
  <rect x="984" y="304" width="446" height="304" rx="18" fill="#ffffff" stroke="#dce3ee" stroke-width="2"/>
  <path d="M1002,304 H1412 Q1430,304 1430,322 V362 H984 V322 Q984,304 1002,304 Z" fill="#eef2ff"/>
  <text x="1207" y="343" text-anchor="middle" font-family="Arial,Segoe UI,sans-serif" font-size="28" font-weight="900" fill="#3155d9">СРЕДА</text>
      <rect x="1002" y="374" width="150" height="56" rx="12" fill="#f5f7fb"/>
      <text x="1077" y="396" text-anchor="middle" font-family="Arial,Segoe UI,sans-serif" font-size="17" font-weight="800" fill="#17202a">15:00–15:40</text>
      <text x="1077" y="418" text-anchor="middle" font-family="Arial,Segoe UI,sans-serif" font-size="17" font-weight="800" fill="#17202a">15:50–16:30</text>
      <text x="1225" y="398" text-anchor="middle" font-family="Arial,Segoe UI,sans-serif" font-size="19" font-weight="900" fill="#3155d9">1 группа</text>
      <text x="1225" y="421" text-anchor="middle" font-family="Arial,Segoe UI,sans-serif" font-size="15" font-weight="700" fill="#5d6977">5 класс</text>
      <line x1="1314" y1="382" x2="1314" y2="422" stroke="#dce3ee" stroke-width="1.5"/>
      <text x="1366" y="408" text-anchor="middle" font-family="Arial,Segoe UI,sans-serif" font-size="16" font-weight="700" fill="#5d6977">40+10+40</text><line x1="1002" y1="440" x2="1412" y2="440" stroke="#e5eaf2" stroke-width="1.5"/>
      <rect x="1002" y="446" width="150" height="56" rx="12" fill="#f5f7fb"/>
      <text x="1077" y="468" text-anchor="middle" font-family="Arial,Segoe UI,sans-serif" font-size="17" font-weight="800" fill="#17202a">16:40–17:20</text>
      <text x="1077" y="490" text-anchor="middle" font-family="Arial,Segoe UI,sans-serif" font-size="17" font-weight="800" fill="#17202a">17:30–18:10</text>
      <text x="1225" y="470" text-anchor="middle" font-family="Arial,Segoe UI,sans-serif" font-size="19" font-weight="900" fill="#3155d9">4 группа</text>
      <text x="1225" y="493" text-anchor="middle" font-family="Arial,Segoe UI,sans-serif" font-size="15" font-weight="700" fill="#5d6977">8 класс</text>
      <line x1="1314" y1="454" x2="1314" y2="494" stroke="#dce3ee" stroke-width="1.5"/>
      <text x="1366" y="480" text-anchor="middle" font-family="Arial,Segoe UI,sans-serif" font-size="16" font-weight="700" fill="#5d6977">40+10+40</text>
  <rect x="18" y="630" width="446" height="304" rx="18" fill="#ffffff" stroke="#dce3ee" stroke-width="2"/>
  <path d="M36,630 H446 Q464,630 464,648 V688 H18 V648 Q18,630 36,630 Z" fill="#eef2ff"/>
  <text x="241" y="669" text-anchor="middle" font-family="Arial,Segoe UI,sans-serif" font-size="28" font-weight="900" fill="#3155d9">ЧЕТВЕРГ</text>
      <rect x="36" y="700" width="150" height="56" rx="12" fill="#f5f7fb"/>
      <text x="111" y="722" text-anchor="middle" font-family="Arial,Segoe UI,sans-serif" font-size="17" font-weight="800" fill="#17202a">15:00–15:40</text>
      <text x="111" y="744" text-anchor="middle" font-family="Arial,Segoe UI,sans-serif" font-size="17" font-weight="800" fill="#17202a">15:50–16:30</text>
      <text x="259" y="724" text-anchor="middle" font-family="Arial,Segoe UI,sans-serif" font-size="19" font-weight="900" fill="#3155d9">5 группа</text>
      <text x="259" y="747" text-anchor="middle" font-family="Arial,Segoe UI,sans-serif" font-size="15" font-weight="700" fill="#5d6977">8–11 классы</text>
      <line x1="348" y1="708" x2="348" y2="748" stroke="#dce3ee" stroke-width="1.5"/>
      <text x="400" y="734" text-anchor="middle" font-family="Arial,Segoe UI,sans-serif" font-size="16" font-weight="700" fill="#5d6977">40+10+40</text><line x1="36" y1="766" x2="446" y2="766" stroke="#e5eaf2" stroke-width="1.5"/>
      <rect x="36" y="772" width="150" height="56" rx="12" fill="#f5f7fb"/>
      <text x="111" y="794" text-anchor="middle" font-family="Arial,Segoe UI,sans-serif" font-size="17" font-weight="800" fill="#17202a">16:40–17:20</text>
      <text x="111" y="816" text-anchor="middle" font-family="Arial,Segoe UI,sans-serif" font-size="17" font-weight="800" fill="#17202a">17:30–18:10</text>
      <text x="259" y="796" text-anchor="middle" font-family="Arial,Segoe UI,sans-serif" font-size="19" font-weight="900" fill="#3155d9">4 группа</text>
      <text x="259" y="819" text-anchor="middle" font-family="Arial,Segoe UI,sans-serif" font-size="15" font-weight="700" fill="#5d6977">8 класс</text>
      <line x1="348" y1="780" x2="348" y2="820" stroke="#dce3ee" stroke-width="1.5"/>
      <text x="400" y="806" text-anchor="middle" font-family="Arial,Segoe UI,sans-serif" font-size="16" font-weight="700" fill="#5d6977">40+10+40</text>
  <rect x="501" y="630" width="446" height="304" rx="18" fill="#ffffff" stroke="#dce3ee" stroke-width="2"/>
  <path d="M519,630 H929 Q947,630 947,648 V688 H501 V648 Q501,630 519,630 Z" fill="#eef2ff"/>
  <text x="724" y="669" text-anchor="middle" font-family="Arial,Segoe UI,sans-serif" font-size="28" font-weight="900" fill="#3155d9">ПЯТНИЦА</text>
      <rect x="519" y="700" width="150" height="56" rx="12" fill="#f5f7fb"/>
      <text x="594" y="722" text-anchor="middle" font-family="Arial,Segoe UI,sans-serif" font-size="17" font-weight="800" fill="#17202a">14:30–15:10</text>
      <text x="594" y="744" text-anchor="middle" font-family="Arial,Segoe UI,sans-serif" font-size="17" font-weight="800" fill="#17202a">15:20–16:00</text>
      <text x="742" y="724" text-anchor="middle" font-family="Arial,Segoe UI,sans-serif" font-size="19" font-weight="900" fill="#3155d9">2 группа</text>
      <text x="742" y="747" text-anchor="middle" font-family="Arial,Segoe UI,sans-serif" font-size="15" font-weight="700" fill="#5d6977">6 класс</text>
      <line x1="831" y1="708" x2="831" y2="748" stroke="#dce3ee" stroke-width="1.5"/>
      <text x="883" y="734" text-anchor="middle" font-family="Arial,Segoe UI,sans-serif" font-size="16" font-weight="700" fill="#5d6977">40+10+40</text><line x1="519" y1="766" x2="929" y2="766" stroke="#e5eaf2" stroke-width="1.5"/>
      <rect x="519" y="772" width="150" height="56" rx="12" fill="#f5f7fb"/>
      <text x="594" y="794" text-anchor="middle" font-family="Arial,Segoe UI,sans-serif" font-size="17" font-weight="800" fill="#17202a">16:10–16:50</text>
      <text x="594" y="816" text-anchor="middle" font-family="Arial,Segoe UI,sans-serif" font-size="17" font-weight="800" fill="#17202a">17:00–17:40</text>
      <text x="742" y="796" text-anchor="middle" font-family="Arial,Segoe UI,sans-serif" font-size="19" font-weight="900" fill="#3155d9">3 группа</text>
      <text x="742" y="819" text-anchor="middle" font-family="Arial,Segoe UI,sans-serif" font-size="15" font-weight="700" fill="#5d6977">7 класс</text>
      <line x1="831" y1="780" x2="831" y2="820" stroke="#dce3ee" stroke-width="1.5"/>
      <text x="883" y="806" text-anchor="middle" font-family="Arial,Segoe UI,sans-serif" font-size="16" font-weight="700" fill="#5d6977">40+10+40</text><line x1="519" y1="838" x2="929" y2="838" stroke="#e5eaf2" stroke-width="1.5"/>
      <rect x="519" y="844" width="150" height="56" rx="12" fill="#f5f7fb"/>
      <text x="594" y="866" text-anchor="middle" font-family="Arial,Segoe UI,sans-serif" font-size="17" font-weight="800" fill="#17202a">17:50–18:30</text>
      <text x="594" y="888" text-anchor="middle" font-family="Arial,Segoe UI,sans-serif" font-size="17" font-weight="800" fill="#17202a">18:40–19:20</text>
      <text x="742" y="868" text-anchor="middle" font-family="Arial,Segoe UI,sans-serif" font-size="19" font-weight="900" fill="#3155d9">5 группа</text>
      <text x="742" y="891" text-anchor="middle" font-family="Arial,Segoe UI,sans-serif" font-size="15" font-weight="700" fill="#5d6977">8–11 классы</text>
      <line x1="831" y1="852" x2="831" y2="892" stroke="#dce3ee" stroke-width="1.5"/>
      <text x="883" y="878" text-anchor="middle" font-family="Arial,Segoe UI,sans-serif" font-size="16" font-weight="700" fill="#5d6977">40+10+40</text>
  <rect x="984" y="630" width="446" height="304" rx="18" fill="#ffffff" stroke="#dce3ee" stroke-width="2"/>
  <path d="M1002,630 H1412 Q1430,630 1430,648 V688 H984 V648 Q984,630 1002,630 Z" fill="#eef2ff"/>
  <text x="1207" y="669" text-anchor="middle" font-family="Arial,Segoe UI,sans-serif" font-size="28" font-weight="900" fill="#3155d9">СУББОТА</text>
      <rect x="1002" y="700" width="150" height="56" rx="12" fill="#f5f7fb"/>
      <text x="1077" y="722" text-anchor="middle" font-family="Arial,Segoe UI,sans-serif" font-size="17" font-weight="800" fill="#17202a">10:00–10:40</text>
      <text x="1077" y="744" text-anchor="middle" font-family="Arial,Segoe UI,sans-serif" font-size="17" font-weight="800" fill="#17202a">10:50–11:30</text>
      <text x="1225" y="724" text-anchor="middle" font-family="Arial,Segoe UI,sans-serif" font-size="19" font-weight="900" fill="#3155d9">1 группа</text>
      <text x="1225" y="747" text-anchor="middle" font-family="Arial,Segoe UI,sans-serif" font-size="15" font-weight="700" fill="#5d6977">5 класс</text>
      <line x1="1314" y1="708" x2="1314" y2="748" stroke="#dce3ee" stroke-width="1.5"/>
      <text x="1366" y="734" text-anchor="middle" font-family="Arial,Segoe UI,sans-serif" font-size="16" font-weight="700" fill="#5d6977">40+10+40</text><line x1="1002" y1="766" x2="1412" y2="766" stroke="#e5eaf2" stroke-width="1.5"/>
      <rect x="1002" y="772" width="150" height="56" rx="12" fill="#f5f7fb"/>
      <text x="1077" y="794" text-anchor="middle" font-family="Arial,Segoe UI,sans-serif" font-size="17" font-weight="800" fill="#17202a">11:40–12:20</text>
      <text x="1077" y="816" text-anchor="middle" font-family="Arial,Segoe UI,sans-serif" font-size="17" font-weight="800" fill="#17202a">12:30–13:10</text>
      <text x="1225" y="796" text-anchor="middle" font-family="Arial,Segoe UI,sans-serif" font-size="19" font-weight="900" fill="#3155d9">2 группа</text>
      <text x="1225" y="819" text-anchor="middle" font-family="Arial,Segoe UI,sans-serif" font-size="15" font-weight="700" fill="#5d6977">6 класс</text>
      <line x1="1314" y1="780" x2="1314" y2="820" stroke="#dce3ee" stroke-width="1.5"/>
      <text x="1366" y="806" text-anchor="middle" font-family="Arial,Segoe UI,sans-serif" font-size="16" font-weight="700" fill="#5d6977">40+10+40</text><line x1="1002" y1="838" x2="1412" y2="838" stroke="#e5eaf2" stroke-width="1.5"/>
      <rect x="1002" y="844" width="150" height="56" rx="12" fill="#f5f7fb"/>
      <text x="1077" y="866" text-anchor="middle" font-family="Arial,Segoe UI,sans-serif" font-size="17" font-weight="800" fill="#17202a">13:20–14:00</text>
      <text x="1077" y="888" text-anchor="middle" font-family="Arial,Segoe UI,sans-serif" font-size="17" font-weight="800" fill="#17202a">14:10–14:50</text>
      <text x="1225" y="868" text-anchor="middle" font-family="Arial,Segoe UI,sans-serif" font-size="19" font-weight="900" fill="#3155d9">3 группа</text>
      <text x="1225" y="891" text-anchor="middle" font-family="Arial,Segoe UI,sans-serif" font-size="15" font-weight="700" fill="#5d6977">7 класс</text>
      <line x1="1314" y1="852" x2="1314" y2="892" stroke="#dce3ee" stroke-width="1.5"/>
      <text x="1366" y="878" text-anchor="middle" font-family="Arial,Segoe UI,sans-serif" font-size="16" font-weight="700" fill="#5d6977">40+10+40</text>
<text x="724" y="1034" text-anchor="middle" font-family="Arial,Segoe UI,sans-serif" font-size="18" font-weight="600" fill="#5d6977">Школа №14 · Центр «Точка роста»</text>
</svg>